<svg width="91" height="88" viewBox="0 0 91 88" fill="none" xmlns="http://www.w3.org/2000/svg">
<path d="M3.78516 4.64648H18.8002L28.8603 54.9093C29.2035 56.6375 30.1437 58.1899 31.5162 59.2948C32.8887 60.3997 34.6061 60.9866 36.3678 60.9529H72.8543C74.616 60.9866 76.3334 60.3997 77.7059 59.2948C79.0784 58.1899 80.0186 56.6375 80.3618 54.9093L86.3679 23.4153H22.554M37.569 79.7217C37.569 81.7948 35.8884 83.4754 33.8152 83.4754C31.7421 83.4754 30.0615 81.7948 30.0615 79.7217C30.0615 77.6485 31.7421 75.9679 33.8152 75.9679C35.8884 75.9679 37.569 77.6485 37.569 79.7217ZM78.8603 79.7217C78.8603 81.7948 77.1797 83.4754 75.1066 83.4754C73.0334 83.4754 71.3528 81.7948 71.3528 79.7217C71.3528 77.6485 73.0334 75.9679 75.1066 75.9679C77.1797 75.9679 78.8603 77.6485 78.8603 79.7217Z" stroke="#121212" stroke-width="7.50752" stroke-linecap="round" stroke-linejoin="round"/>
</svg>
