<svg width="40" height="40" viewBox="0 0 40 40" fill="none" xmlns="http://www.w3.org/2000/svg">
<path d="M22.5008 27.175C21.3032 27.1787 20.1275 26.8532 19.1021 26.2342C18.0768 25.6152 17.2412 24.7265 16.6866 23.6649C16.1319 22.6034 15.8796 21.4099 15.9571 20.2147C16.0345 19.0195 16.4388 17.8686 17.1258 16.8875C17.3181 16.6157 17.6105 16.4313 17.9387 16.3751C18.2669 16.3188 18.604 16.3952 18.8758 16.5875C19.1477 16.7798 19.332 17.0722 19.3883 17.4004C19.4445 17.7286 19.3681 18.0657 19.1758 18.3375C18.6285 19.1109 18.3745 20.0539 18.4592 20.9976C18.544 21.9413 18.962 22.824 19.6383 23.4875C20.0135 23.8647 20.4596 24.164 20.9508 24.3682C21.4421 24.5725 21.9688 24.6776 22.5008 24.6776C23.0329 24.6776 23.5596 24.5725 24.0509 24.3682C24.5421 24.164 24.9882 23.8647 25.3633 23.4875L32.8633 15.9875C33.5854 15.2209 33.9805 14.2031 33.9647 13.1501C33.9489 12.0971 33.5236 11.0916 32.7789 10.3469C32.0343 9.60223 31.0288 9.17691 29.9758 9.16115C28.9227 9.14539 27.905 9.54043 27.1383 10.2625L23.9508 13.45C23.8343 13.5665 23.6959 13.659 23.5437 13.7221C23.3914 13.7852 23.2282 13.8176 23.0633 13.8176C22.8985 13.8176 22.7353 13.7852 22.583 13.7221C22.4308 13.659 22.2924 13.5665 22.1758 13.45C22.0593 13.3335 21.9668 13.1951 21.9038 13.0428C21.8407 12.8905 21.8082 12.7273 21.8082 12.5625C21.8082 12.3977 21.8407 12.2345 21.9038 12.0822C21.9668 11.9299 22.0593 11.7915 22.1758 11.675L25.3633 8.4875C26.6074 7.3283 28.2528 6.69722 29.9529 6.72722C31.6531 6.75722 33.2752 7.44595 34.4775 8.64831C35.6799 9.85067 36.3686 11.4728 36.3986 13.1729C36.4286 14.8731 35.7975 16.5185 34.6383 17.7625L27.1383 25.2625C26.5289 25.8704 25.8057 26.3521 25.0099 26.6803C24.2142 27.0085 23.3616 27.1766 22.5008 27.175Z" fill="#0086FF"/>
<path d="M10.0004 33.425C8.7032 33.4274 7.43451 33.0445 6.35518 32.3249C5.27584 31.6054 4.43447 30.5815 3.93774 29.3832C3.441 28.1849 3.31127 26.866 3.56499 25.5939C3.81871 24.3217 4.44446 23.1536 5.3629 22.2375L12.8629 14.7375C13.4711 14.128 14.1941 13.6451 14.9901 13.3168C15.7861 12.9886 16.6394 12.8214 17.5004 12.825C19.2369 12.8313 20.9018 13.5179 22.1379 14.7375C23.2283 15.8226 23.9004 17.258 24.0353 18.7904C24.1702 20.3228 23.7594 21.8536 22.8754 23.1125C22.6831 23.3844 22.3907 23.5687 22.0625 23.6249C21.7343 23.6812 21.3972 23.6048 21.1254 23.4125C20.8536 23.2202 20.6692 22.9278 20.613 22.5996C20.5567 22.2715 20.6331 21.9344 20.8254 21.6625C21.3727 20.8891 21.6268 19.9461 21.542 19.0024C21.4573 18.0587 21.0393 17.176 20.3629 16.5125C19.6118 15.7333 18.5824 15.2838 17.5004 15.2625C16.9639 15.2689 16.4342 15.3828 15.9425 15.5975C15.4509 15.8122 15.0072 16.1234 14.6379 16.5125L7.1379 24.0125C6.41583 24.7791 6.02079 25.7969 6.03655 26.8499C6.05231 27.9029 6.47763 28.9084 7.22231 29.6531C7.967 30.3978 8.97247 30.8231 10.0255 30.8389C11.0785 30.8546 12.0963 30.4596 12.8629 29.7375L16.0504 26.55C16.1669 26.4335 16.3053 26.341 16.4576 26.2779C16.6099 26.2149 16.7731 26.1824 16.9379 26.1824C17.1027 26.1824 17.2659 26.2149 17.4182 26.2779C17.5705 26.341 17.7089 26.4335 17.8254 26.55C17.9419 26.6666 18.0344 26.8049 18.0975 26.9572C18.1606 27.1095 18.193 27.2727 18.193 27.4375C18.193 27.6023 18.1606 27.7655 18.0975 27.9178C18.0344 28.0701 17.9419 28.2085 17.8254 28.325L14.6379 31.5125C14.0285 32.1204 13.3052 32.6021 12.5095 32.9303C11.7138 33.2585 10.8611 33.4266 10.0004 33.425Z" fill="#121212"/>
</svg>
