<svg width="37" height="38" viewBox="0 0 37 38" fill="none" xmlns="http://www.w3.org/2000/svg">
<circle cx="18.2083" cy="19.7913" r="17.8125" stroke="#004A8C" stroke-width="0.791667"/>
<path d="M18.4337 23.4013C17.8595 23.4013 17.5471 23.0804 17.4964 22.4387L16.7617 13.116C16.728 12.5924 16.8631 12.1533 17.1671 11.7987C17.488 11.444 17.9017 11.2667 18.4084 11.2667C18.9151 11.2667 19.3288 11.444 19.6497 11.7987C19.9706 12.1533 20.1057 12.5924 20.0551 13.116L19.3457 22.4387C19.2951 23.0804 18.9911 23.4013 18.4337 23.4013ZM18.2564 29C17.7666 29 17.3866 28.8733 17.1164 28.62C16.8631 28.3498 16.7364 27.9698 16.7364 27.48V27.0493C16.7364 26.5596 16.8631 26.188 17.1164 25.9347C17.3866 25.6644 17.7666 25.5293 18.2564 25.5293H18.5857C19.0755 25.5293 19.4471 25.6644 19.7004 25.9347C19.9706 26.188 20.1057 26.5596 20.1057 27.0493V27.48C20.1057 27.9698 19.9706 28.3498 19.7004 28.62C19.4471 28.8733 19.0755 29 18.5857 29H18.2564Z" fill="#004A8C"/>
</svg>
