<svg width="32" height="32" viewBox="0 0 32 32" fill="none" xmlns="http://www.w3.org/2000/svg">
<path d="M27.2979 32C25.9928 32 24.8816 31.5902 23.9642 30.7705C23.0469 29.9531 22.5882 28.9594 22.5882 27.7895C22.5882 27.5649 22.6096 27.3331 22.6522 27.0939C22.6962 26.8536 22.7614 26.6274 22.848 26.4152L8.27482 18.7335C7.81427 19.1983 7.27843 19.5604 6.66729 19.8198C6.05616 20.0792 5.40235 20.2094 4.70588 20.2105C3.39827 20.2105 2.28769 19.8018 1.37412 18.9844C0.458039 18.1659 0 17.1722 0 16.0034C0 14.8345 0.458039 13.8403 1.37412 13.0206C2.2902 12.201 3.40078 11.7906 4.70588 11.7895C5.40361 11.7895 6.05741 11.9197 6.66729 12.1802C7.27718 12.4407 7.81302 12.8028 8.27482 13.2665L22.8499 5.58316C22.762 5.37207 22.6968 5.14639 22.6541 4.90611C22.6102 4.66695 22.5882 4.43509 22.5882 4.21053C22.5882 3.04056 23.0456 2.04688 23.9605 1.22947C24.874 0.409825 25.984 0 27.2903 0C28.5967 0 29.7079 0.409263 30.624 1.22779C31.5401 2.04632 31.9987 3.03944 32 4.20716C32.0013 5.37488 31.5432 6.36912 30.6259 7.18989C29.7136 8.01067 28.603 8.42105 27.2941 8.42105C26.5964 8.42105 25.9426 8.29081 25.3327 8.03032C24.7228 7.76982 24.187 7.40772 23.7252 6.944L9.152 14.6274C9.23859 14.8385 9.30322 15.063 9.34588 15.3011C9.3898 15.5402 9.41176 15.7709 9.41176 15.9933C9.41176 16.2156 9.3898 16.4486 9.34588 16.6922C9.30196 16.9359 9.2367 17.1632 9.15012 17.3743L23.7252 25.056C24.1857 24.5923 24.7216 24.2302 25.3327 23.9697C25.9438 23.7092 26.5976 23.5789 27.2941 23.5789C28.6017 23.5789 29.7123 23.9882 30.6259 24.8067C31.542 25.6241 32 26.6173 32 27.7861C32 28.9549 31.5432 29.9492 30.6296 30.7688C29.7161 31.5885 28.6055 31.9989 27.2979 32ZM27.2941 6.73684C28.0684 6.73684 28.7329 6.48926 29.2875 5.99411C29.8409 5.49782 30.1176 4.9033 30.1176 4.21053C30.1176 3.51775 29.8409 2.92323 29.2875 2.42695C28.7329 1.93179 28.0684 1.68421 27.2941 1.68421C26.5198 1.68421 25.8554 1.93179 25.3007 2.42695C24.7473 2.92323 24.4706 3.51775 24.4706 4.21053C24.4706 4.9033 24.7473 5.49782 25.3007 5.99411C25.8554 6.48926 26.5198 6.73684 27.2941 6.73684ZM4.70588 18.5263C5.48016 18.5263 6.14463 18.2787 6.69929 17.7836C7.25271 17.2873 7.52941 16.6928 7.52941 16C7.52941 15.3072 7.25271 14.7127 6.69929 14.2164C6.14588 13.7201 5.48141 13.4726 4.70588 13.4737C3.93035 13.4748 3.26588 13.7224 2.71247 14.2164C2.15906 14.7127 1.88235 15.3072 1.88235 16C1.88235 16.6928 2.15906 17.2873 2.71247 17.7836C3.26588 18.2799 3.93035 18.5274 4.70588 18.5263ZM27.2941 30.3158C28.0684 30.3158 28.7329 30.0682 29.2875 29.5731C29.8409 29.0768 30.1176 28.4822 30.1176 27.7895C30.1176 27.0967 29.8409 26.5022 29.2875 26.0059C28.7329 25.5107 28.0684 25.2632 27.2941 25.2632C26.5198 25.2632 25.8554 25.5107 25.3007 26.0059C24.7473 26.5022 24.4706 27.0967 24.4706 27.7895C24.4706 28.4822 24.7473 29.0768 25.3007 29.5731C25.8554 30.0682 26.5198 30.3158 27.2941 30.3158Z" fill="white"/>
</svg>
