<svg width="71" height="66" viewBox="0 0 71 66" fill="none" xmlns="http://www.w3.org/2000/svg">
<path d="M35.2042 12.0914L32.0489 8.84859C24.6428 1.23661 11.0626 3.8634 6.16035 13.4334C3.85884 17.9346 3.33958 24.4333 7.54213 32.7273C11.5907 40.7133 20.0134 50.2789 35.2042 60.698C50.395 50.2789 58.8133 40.7133 62.8662 32.7273C67.0687 24.4289 66.5539 17.9346 64.248 13.4334C59.3457 3.8634 45.7655 1.23221 38.3594 8.84419L35.2042 12.0914ZM35.2042 66C-32.2699 21.4193 14.429 -13.3757 34.4297 5.0294C34.6937 5.27286 34.9519 5.52366 35.2042 5.7818C35.452 5.52203 35.7104 5.27249 35.9787 5.0338C55.9749 -13.3845 102.678 21.4149 35.2042 66Z" fill="white"/>
</svg>
